<mxfile host="app.diagrams.net" modified="2023-04-20T16:56:33.560Z" agent="Mozilla/5.0 (Windows NT 10.0; Win64; x64) AppleWebKit/537.36 (KHTML, like Gecko) Chrome/112.0.0.0 Safari/537.36" version="21.2.1" etag="oergOleeOSddmInUoMc9" type="github">
  <diagram name="Page-1" id="olbNB0-uj6DG5-91t_vp">
    <mxGraphModel>
      <root>
        <mxCell id="0" />
        <mxCell id="1" parent="0" />
      </root>
    </mxGraphModel>
  </diagram>
</mxfile>
